<svg xmlns="http://www.w3.org/2000/svg" width="512" height="512" viewBox="0 0 512 512">
  <rect width="512" height="512" rx="100" fill="#000000"/>
  <g transform="translate(85, 85)">
    <path d="M170.7 0C76.35 0 0 76.35 0 170.7S76.35 341.3 170.7 341.3 341.3 264.95 341.3 170.7 264.95 0 170.7 0z" fill="#10b981"/>
    <path d="M256 128H85.33C76.35 128 68.27 136.05 68.27 145.02v213.33c0 8.98 8.08 17.02 17.07 17.02h213.33c8.98 0 17.07-8.04 17.07-17.02V182.4L195.2 121.6z" fill="#ffffff"/>
    <path d="M213.33 149.33l-64 64-21.33-21.33 85.33-85.33 85.33 85.33-21.33 21.33z" fill="#10b981"/>
    <path d="M213.33 213.33H128v21.33h85.33v-21.33z" fill="#10b981"/>
    <path d="M234.67 256H128v21.33h106.67v-21.33z" fill="#10b981"/>
    <path d="M213.33 298.67H128v21.33h85.33v-21.33z" fill="#10b981"/>
  </g>
</svg>